<?xml version="1.0" encoding="UTF-8" standalone="no"?>
<!-- Created with Inkscape (http://www.inkscape.org/) -->

<svg
   xmlns:dc="http://purl.org/dc/elements/1.1/"
   xmlns:cc="http://creativecommons.org/ns#"
   xmlns:rdf="http://www.w3.org/1999/02/22-rdf-syntax-ns#"
   xmlns:svg="http://www.w3.org/2000/svg"
   xmlns="http://www.w3.org/2000/svg"
   xmlns:sodipodi="http://sodipodi.sourceforge.net/DTD/sodipodi-0.dtd"
   xmlns:inkscape="http://www.inkscape.org/namespaces/inkscape"
   width="250"
   height="250"
   viewBox="0 0 66.145832 66.145835"
   version="1.1"
   id="svg8"
   inkscape:version="0.92.4 5da689c313, 2019-01-14"
   sodipodi:docname="icon.svg">
  <defs
     id="defs2" />
  <sodipodi:namedview
     id="base"
     pagecolor="#ffffff"
     bordercolor="#666666"
     borderopacity="1.0"
     inkscape:pageopacity="0.0"
     inkscape:pageshadow="2"
     inkscape:zoom="1.4142136"
     inkscape:cx="-173.74697"
     inkscape:cy="167.47816"
     inkscape:document-units="px"
     inkscape:current-layer="layer1"
     showgrid="false"
     showguides="false"
     inkscape:window-width="1920"
     inkscape:window-height="1004"
     inkscape:window-x="0"
     inkscape:window-y="0"
     inkscape:window-maximized="1"
     units="px">
    <inkscape:grid
       type="xygrid"
       id="grid3716" />
  </sodipodi:namedview>
  <metadata
     id="metadata5">
    <rdf:RDF>
      <cc:Work
         rdf:about="">
        <dc:format>image/svg+xml</dc:format>
        <dc:type
           rdf:resource="http://purl.org/dc/dcmitype/StillImage" />
        <dc:title />
      </cc:Work>
    </rdf:RDF>
  </metadata>
  <g
     inkscape:label="Capa 1"
     inkscape:groupmode="layer"
     id="layer1"
     transform="translate(0,-230.85416)">
    <path
       style="fill:#ccff00;stroke:#88aa00;stroke-width:0.4413738;stroke-miterlimit:4;stroke-dasharray:none;stroke-opacity:1"
       d="m 33.718982,280.24726 c 1.399307,5.0534 -0.66397,12.31262 -5.267868,14.82242 -4.722804,2.57461 -12.038917,0.2372 -15.707948,-3.69621 -7.5584643,-8.1031 -3.103384,-25.67839 -5.3481173,-32.81027 5.0540263,5.50994 23.2901633,10.72801 26.3239333,21.68406 z"
       id="path3713"
       inkscape:connector-curvature="0"
       sodipodi:nodetypes="aaaca"
       inkscape:export-xdpi="96"
       inkscape:export-ydpi="96" />
    <path
       style="fill:#88aa00;stroke-width:0.37030336"
       d="m 13.304493,269.16858 c -0.650574,-1.18961 -1.880999,-3.59616 -1.880999,-3.59616 0,0 1.54877,2.23482 2.27655,3.39706 5.008632,7.99854 12.113632,19.22627 14.316543,24.50416 0.757763,1.8155 0.413991,1.46353 0.413991,1.46353 0,0 0.177133,0.41743 -1.039248,-1.10254 -3.576167,-4.46872 -9.548229,-16.3669 -14.086841,-24.66605 z"
       id="rect3718"
       inkscape:connector-curvature="0"
       sodipodi:nodetypes="ccascsac"
       inkscape:export-xdpi="96"
       inkscape:export-ydpi="96" />
    <path
       sodipodi:nodetypes="scsazss"
       inkscape:connector-curvature="0"
       id="path3721"
       d="m 30.162457,282.01428 c 0.225374,-0.3038 0.566952,-0.84613 0.566952,-0.84613 0,0 -0.03516,0.60009 -0.182258,0.93896 -0.987379,2.27461 -2.772872,4.4069 -4.983279,5.53961 -0.288017,0.14753 -0.813284,0.38701 -0.965056,0.10549 -0.151786,-0.2815 0.0058,-0.32481 0.241079,-0.53581 1.91932,-1.72107 3.834545,-3.19645 5.322562,-5.20212 z"
       style="fill:#88aa00;stroke-width:0.19399525"
       inkscape:export-xdpi="96"
       inkscape:export-ydpi="96" />
    <path
       style="fill:#88aa00;stroke-width:0.16847648"
       d="m 26.336424,277.48194 c 0.196458,-0.26392 0.494304,-0.73495 0.494304,-0.73495 0,0 -0.03154,0.52062 -0.160003,0.81485 -0.86218,1.97486 -2.418014,3.82759 -4.341629,4.81386 -0.250658,0.12843 -0.707717,0.33706 -0.839202,0.0931 -0.131497,-0.24396 0.0056,-0.2818 0.210481,-0.46522 1.671508,-1.4962 3.339051,-2.77926 4.636052,-4.52165 z"
       id="path3723"
       inkscape:connector-curvature="0"
       sodipodi:nodetypes="scsazss"
       inkscape:export-xdpi="96"
       inkscape:export-ydpi="96" />
    <path
       sodipodi:nodetypes="scsazss"
       inkscape:connector-curvature="0"
       id="path3725"
       d="m 22.43639,273.34348 c 0.153355,-0.21585 0.384342,-0.60223 0.384342,-0.60223 0,0 -0.01445,0.43339 -0.112135,0.67596 -0.65564,1.62816 -1.875162,3.13973 -3.410708,3.92109 -0.200104,0.10174 -0.565497,0.26597 -0.677075,0.0598 -0.11155,-0.2062 -0.0015,-0.23482 0.160412,-0.3834 1.320704,-1.21186 2.642733,-2.24611 3.655158,-3.67121 z"
       style="fill:#88aa00;stroke-width:0.13833269"
       inkscape:export-xdpi="96"
       inkscape:export-ydpi="96" />
    <path
       style="fill:#88aa00;stroke-width:0.19399525"
       d="m 16.351589,289.98798 c -0.37578,0.0433 -1.016238,0.0679 -1.016238,0.0679 0,0 0.537266,0.2696 0.904289,0.31164 2.463557,0.28221 5.202926,-0.19793 7.289078,-1.54584 0.271778,-0.17566 0.741804,-0.51082 0.573892,-0.78301 -0.167807,-0.27226 -0.284186,-0.1574 -0.584571,-0.0591 -2.450145,0.80164 -4.685473,1.72259 -7.16645,2.00841 z"
       id="path3733"
       inkscape:connector-curvature="0"
       sodipodi:nodetypes="scsazss"
       inkscape:export-xdpi="96"
       inkscape:export-ydpi="96" />
    <path
       sodipodi:nodetypes="scsazss"
       inkscape:connector-curvature="0"
       id="path3735"
       d="m 14.339484,284.40837 c -0.326787,0.0382 -0.883637,0.0606 -0.883637,0.0606 0,0 0.466647,0.233 0.785684,0.26886 2.141374,0.24076 4.523799,-0.18027 6.339738,-1.35303 0.23655,-0.15285 0.645768,-0.44437 0.500235,-0.68022 -0.145694,-0.23576 -0.24682,-0.13607 -0.508132,-0.0503 -2.131498,0.69947 -4.076429,1.50208 -6.233885,1.75412 z"
       style="fill:#88aa00;stroke-width:0.16847648"
       inkscape:export-xdpi="96"
       inkscape:export-ydpi="96" />
    <path
       style="fill:#88aa00;stroke-width:0.13833269"
       d="m 12.705493,278.96161 c -0.263605,0.0249 -0.713718,0.0317 -0.713718,0.0317 0,0 0.382551,0.20419 0.641467,0.24087 1.737847,0.24628 3.656672,-0.0541 5.101123,-0.99321 0.188145,-0.12242 0.513076,-0.35675 0.390303,-0.55647 -0.122808,-0.19971 -0.202629,-0.1187 -0.41224,-0.0528 -1.70986,0.53783 -3.266562,1.16561 -5.006941,1.32985 z"
       id="path3737"
       inkscape:connector-curvature="0"
       sodipodi:nodetypes="scsazss"
       inkscape:export-xdpi="96"
       inkscape:export-ydpi="96" />
  </g>
</svg>
